# Blender v2.78 (sub 0) OBJ File: 'TurretBody.blend'
# www.blender.org
v 1.968310 3.457333 -3.476717
v -1.968311 3.457333 3.476716
v -1.968310 3.457333 -3.476718
v 1.968311 4.494452 -3.476715
v 1.968309 4.494452 3.476719
v -1.968311 4.494452 3.476716
v -1.968310 4.494452 -3.476717
v -0.984155 4.494452 -3.476716
v -0.984156 4.494452 3.476716
v 0.984156 4.494452 -3.476716
v 0.984154 4.494452 3.476718
v -0.984156 4.494452 1.738358
v 0.984154 4.494452 1.738360
v 0.984154 4.494452 1.738360
v -0.984156 4.494452 1.738358
v -0.984156 4.494452 3.476716
v -0.602430 3.457333 1.738358
v -0.602430 4.494452 1.738358
v -1.968311 3.457333 3.476716
v 1.968310 3.457333 3.476717
v 1.968310 3.457333 -3.476717
v 1.968310 3.457333 3.476717
v 1.968310 3.457333 -3.476717
v -1.968311 3.457333 3.476716
v -1.968310 3.457333 -3.476718
v -1.968310 3.457333 -3.476718
v -0.602431 4.494452 3.476716
v -0.602430 3.457333 3.476716
v 0.604156 3.457333 3.476717
v 0.604156 3.457333 1.738358
v 0.604155 4.494452 1.738360
v 0.604154 4.494452 3.476718
v -0.984156 5.030456 1.738358
v -0.984156 5.030456 3.476716
v -0.602430 5.030456 1.738358
v -0.602431 5.030456 3.476716
v 0.984154 5.030456 3.476718
v 0.984154 5.030456 1.738360
v 0.604154 5.030456 3.476718
v 0.604155 5.030456 1.738360
v 0.604155 5.030456 2.172949
v -0.602430 5.030456 2.172948
v -0.597785 3.457333 -3.476717
v -0.984155 4.494452 -3.476716
v 0.608771 3.457333 -3.476717
v 0.984156 4.494452 -3.476716
vt 0.6094 0.3140
vt 0.8298 0.2098
vt 0.8101 0.3436
vt 0.2539 0.0855
vt 0.3346 0.3340
vt 0.2714 0.3383
vt 0.1951 0.0001
vt 0.1536 0.1332
vt 0.0863 0.0947
vt 0.4693 0.3989
vt 0.3348 0.4784
vt 0.3348 0.3989
vt 0.2558 0.9064
vt 0.0623 0.9197
vt 0.1307 0.8554
vt 0.5261 0.3650
vt 0.5377 0.3035
vt 0.5449 0.3526
vt 0.5903 0.3798
vt 0.5781 0.3987
vt 0.5574 0.1697
vt 0.6389 0.1134
vt 0.6291 0.1803
vt 0.5331 0.1581
vt 0.5794 0.1175
vt 0.5633 0.0951
vt 0.6361 0.0871
vt 0.3348 0.4789
vt 0.4143 0.4951
vt 0.3348 0.4951
vt 0.2636 0.6224
vt 0.3268 0.9084
vt 0.1163 0.6183
vt 0.1241 0.3343
vt 0.0001 0.6343
vt 0.4693 0.4784
vt 0.6638 0.3992
vt 0.6638 0.4787
vt 0.3455 0.3987
vt 0.5154 0.3076
vt 0.3652 0.0001
vt 0.3350 0.0631
vt 0.3171 0.0812
vt 0.2022 0.9999
vt 0.4143 0.4789
vt 0.3346 0.6243
vt 0.0456 0.3202
vt 0.3348 0.3412
vn 0.0000 1.0000 0.0000
vn -0.0000 -0.0000 1.0000
vn -1.0000 0.0000 -0.0000
vn 1.0000 0.0000 0.0000
vn 0.0000 -1.0000 0.0000
vn 0.0000 0.0000 -1.0000
s off
f 15/1/1 10/2/1 8/3/1
f 6/4/1 8/5/1 7/6/1
f 27/7/2 24/8/2 28/9/2
f 17/10/2 31/11/2 18/12/2
f 5/13/2 29/14/2 22/15/2
f 36/16/1 33/17/1 34/18/1
f 34/18/3 15/1/3 16/19/3
f 36/16/2 16/19/2 27/20/2
f 38/21/4 11/22/4 14/23/4
f 40/24/5 37/25/5 39/26/5
f 11/22/2 39/26/2 32/27/2
f 38/21/6 15/1/6 33/17/6
f 42/28/1 40/29/1 35/30/1
f 4/31/1 11/32/1 5/13/1
f 22/15/4 4/31/4 5/13/4
f 7/6/6 23/33/6 26/34/6
f 7/6/3 24/8/3 6/4/3
f 26/34/5 28/9/5 24/8/5
f 45/35/5 22/15/5 29/14/5
f 30/36/5 43/37/5 45/38/5
f 28/39/4 35/40/4 36/16/4
f 40/24/4 29/41/4 30/42/4
f 15/1/1 14/23/1 10/2/1
f 6/4/1 16/43/1 8/5/1
f 27/7/2 6/4/2 24/8/2
f 17/10/2 30/36/2 31/11/2
f 5/13/2 32/44/2 29/14/2
f 36/16/1 35/40/1 33/17/1
f 34/18/3 33/17/3 15/1/3
f 36/16/2 34/18/2 16/19/2
f 38/21/4 37/25/4 11/22/4
f 40/24/5 38/21/5 37/25/5
f 11/22/2 37/25/2 39/26/2
f 38/21/6 14/23/6 15/1/6
f 42/28/1 41/45/1 40/29/1
f 4/31/1 10/46/1 11/32/1
f 22/15/4 23/33/4 4/31/4
f 7/6/6 4/31/6 23/33/6
f 7/6/3 26/34/3 24/8/3
f 26/34/5 43/47/5 28/9/5
f 45/35/5 23/33/5 22/15/5
f 30/36/5 17/10/5 43/37/5
f 28/39/4 17/48/4 35/40/4
f 40/24/4 39/26/4 29/41/4
